<?xml version="1.0" encoding="utf-8"?>
<!-- Generator: Adobe Illustrator 27.1.0, SVG Export Plug-In . SVG Version: 6.00 Build 0)  -->
<svg version="1.1" id="Capa_1" xmlns="http://www.w3.org/2000/svg" xmlns:xlink="http://www.w3.org/1999/xlink" x="0px" y="0px"
	 viewBox="0 0 50 50" style="enable-background:new 0 0 50 50;" xml:space="preserve">
<style type="text/css">
	.st0{fill:#FFFFFF;}
</style>
<g>
	<g>
		<path class="st0" d="M17.89,35.21c-3.56,0-6.45-2.57-6.9-6.15c-0.37-2.91-0.81-5.82-1.25-8.72l-0.57-3.82
			c-0.41-2.83-0.81-5.51-1.2-8.19l-1.16,0c-0.89,0-1.77,0.01-2.66-0.01C2.7,8.28,1.53,7.29,1.24,5.84C0.97,4.52,1.69,3.13,2.93,2.56
			C3.2,2.43,3.56,2.29,3.98,2.28l1.24-0.02c1.19-0.02,2.42-0.04,3.65,0.05c2.67,0.21,4.65,2.12,5.06,4.86l0.14,0.92
			c0.08,0.52,0.16,1.03,0.23,1.55c4.73-0.01,9.41-0.01,14.11-0.01l6.87,0c3.3,0,6.61,0.01,9.91-0.02c1.84-0.02,3.03,0.76,3.57,2.29
			l0.06,0.33l-0.02,1.01l-0.25,1.18c-0.16,0.72-0.31,1.44-0.45,2.16l-1.02,5.14c-0.53,2.65-1.05,5.31-1.59,7.96
			c-0.68,3.34-3.34,5.49-6.78,5.49l-6.47-0.01c-4.76-0.01-9.51-0.02-14.26,0.03C17.94,35.21,17.92,35.21,17.89,35.21z M8.01,6.36
			c1.19,0,1.73,0.47,1.9,1.67c0.39,2.69,0.78,5.37,1.18,8.05l0.59,3.96c0.44,2.92,0.89,5.84,1.25,8.77c0.33,2.6,2.41,4.52,5.01,4.43
			c4.76-0.05,9.52-0.04,14.28-0.03l6.46,0.01c2.5,0,4.36-1.5,4.86-3.92c0.54-2.65,1.07-5.3,1.59-7.95l1.02-5.14
			c0.15-0.73,0.3-1.46,0.46-2.19l0.23-1.07v-0.52c-0.23-0.54-0.6-0.89-1.65-0.83c-3.31,0.02-6.62,0.02-9.93,0.02l-6.87,0
			c-4.84,0-9.67,0-14.5,0.01c-1.2-0.09-1.44-0.82-1.5-1.32c-0.07-0.63-0.17-1.26-0.27-1.89l-0.14-0.94
			c-0.27-1.83-1.52-3.05-3.27-3.19C7.58,4.18,6.45,4.2,5.26,4.23L3.99,4.24c0,0-0.06,0.01-0.23,0.09c-0.42,0.2-0.68,0.69-0.6,1.13
			C3.27,6,3.67,6.34,4.2,6.35c0.87,0.02,1.74,0.02,2.61,0.01L8.01,6.36z"/>
	</g>
	<g>
		<path class="st0" d="M36.77,47.75C36.77,47.75,36.77,47.75,36.77,47.75L36.77,47.75c-3.49-0.01-6.32-2.84-6.32-6.32
			c0-3.48,2.84-6.3,6.32-6.31c0,0,0,0,0,0c3.42,0,6.31,2.9,6.32,6.33c0.01,1.66-0.65,3.23-1.84,4.43
			C40.05,47.09,38.46,47.75,36.77,47.75z M36.77,45.79C36.77,45.79,36.77,45.79,36.77,45.79c1.17,0,2.27-0.46,3.1-1.29
			c0.82-0.82,1.27-1.9,1.27-3.03c-0.01-2.37-2-4.38-4.35-4.38c0,0,0,0,0,0c-2.4,0-4.35,1.95-4.36,4.35
			C32.42,43.83,34.37,45.79,36.77,45.79L36.77,45.79z"/>
	</g>
	<g>
		<path class="st0" d="M18.48,47.7c-3.35,0-6.11-2.73-6.17-6.13c-0.06-3.47,2.69-6.35,6.14-6.42c1.58,0.02,3.12,0.58,4.29,1.72
			c1.21,1.18,1.91,2.83,1.93,4.52l0,0c0.03,3.37-2.76,6.26-6.1,6.31C18.55,47.7,18.51,47.7,18.48,47.7z M18.57,37.1
			c-0.03,0-0.05,0-0.08,0c-2.37,0.05-4.26,2.03-4.22,4.43c0.04,2.35,1.93,4.19,4.27,4.2c2.28-0.04,4.19-2.02,4.17-4.34l0,0
			c-0.01-1.17-0.5-2.32-1.33-3.13C20.61,37.52,19.61,37.1,18.57,37.1z"/>
	</g>
</g>
</svg>
