<?xml version="1.0" encoding="utf-8"?>
<!-- Generator: Adobe Illustrator 27.1.0, SVG Export Plug-In . SVG Version: 6.00 Build 0)  -->
<svg version="1.1" id="Capa_1" xmlns="http://www.w3.org/2000/svg" xmlns:xlink="http://www.w3.org/1999/xlink" x="0px" y="0px"
	 viewBox="0 0 1900 644" style="enable-background:new 0 0 1900 644;" xml:space="preserve">
<style type="text/css">
	.st0{fill:#000F98;}
	.st1{fill:#FFFFFF;}
</style>
<rect class="st0" width="1900" height="644"/>
<g>
	<g>
		<polygon class="st1" points="462.75,364.79 460.81,396.06 462.1,427.33 464.05,396.06 		"/>
		<polygon class="st1" points="493.7,396.38 462.43,394.44 431.16,395.74 462.43,397.68 		"/>
	</g>
	<circle class="st1" cx="213.01" cy="578.08" r="5.66"/>
	<circle class="st1" cx="1030.94" cy="242.04" r="3.01"/>
	<circle class="st1" cx="286.49" cy="322.38" r="3.01"/>
	<circle class="st1" cx="530.57" cy="223.46" r="3.92"/>
	<circle class="st1" cx="1262.01" cy="426.58" r="2.09"/>
	<circle class="st1" cx="796.06" cy="270.99" r="2.09"/>
	<circle class="st1" cx="1885.44" cy="285.43" r="2.09"/>
	<circle class="st1" cx="1388.37" cy="218.09" r="2.09"/>
	<circle class="st1" cx="1690.01" cy="366.88" r="2.09"/>
	<circle class="st1" cx="1179.28" cy="305.65" r="5.12"/>
	<circle class="st1" cx="1617.67" cy="239.02" r="5.12"/>
	<circle class="st1" cx="955.41" cy="409.46" r="4.18"/>
	<path class="st1" d="M727.13,456.42c9.19,0,16.67,7.27,17.03,16.36h0.03c0.36-9.1,7.85-16.36,17.03-16.36
		c-9.42,0-17.05-7.63-17.05-17.05C744.18,448.79,736.55,456.42,727.13,456.42z"/>
	<path class="st1" d="M1419.96,377.23c4.48,0,8.13,3.55,8.31,7.98h0.02c0.18-4.44,3.83-7.98,8.31-7.98c-4.59,0-8.32-3.72-8.32-8.32
		C1428.28,373.51,1424.55,377.23,1419.96,377.23z"/>
	<g>
		<polygon class="st1" points="67.03,434.89 66.02,451.25 66.7,467.62 67.71,451.25 		"/>
		<polygon class="st1" points="83.23,451.42 66.86,450.41 50.5,451.09 66.86,452.1 		"/>
	</g>
	<g>
		<polygon class="st1" points="1817.87,476.2 1816.52,497.86 1817.42,519.51 1818.76,497.86 		"/>
		<polygon class="st1" points="1839.3,498.08 1817.64,496.74 1795.99,497.64 1817.64,498.98 		"/>
	</g>
	<circle class="st1" cx="12.07" cy="285.43" r="6.07"/>
	<circle class="st1" cx="1697.1" cy="601.13" r="5.12"/>
</g>
<g>
	<g>
		<polygon class="st1" points="1415.77,75.46 1417.72,44.19 1416.42,12.92 1414.48,44.19 		"/>
		<polygon class="st1" points="1384.83,43.87 1416.1,45.81 1447.37,44.51 1416.1,42.57 		"/>
	</g>
	<circle class="st1" cx="1665.52" cy="-137.82" r="5.66"/>
	<circle class="st1" cx="847.59" cy="198.22" r="3.01"/>
	<circle class="st1" cx="1592.04" cy="117.87" r="3.01"/>
	<circle class="st1" cx="1347.95" cy="216.8" r="3.92"/>
	<circle class="st1" cx="616.52" cy="13.68" r="2.09"/>
	<circle class="st1" cx="1082.47" cy="169.26" r="2.09"/>
	<circle class="st1" cx="-6.92" cy="154.82" r="2.09"/>
	<circle class="st1" cx="490.15" cy="222.16" r="2.09"/>
	<circle class="st1" cx="188.52" cy="73.37" r="2.09"/>
	<circle class="st1" cx="699.24" cy="134.6" r="5.12"/>
	<circle class="st1" cx="260.86" cy="201.23" r="5.12"/>
	<circle class="st1" cx="923.12" cy="30.79" r="4.18"/>
	<path class="st1" d="M1151.4-16.17c-9.19,0-16.67-7.27-17.03-16.36h-0.03c-0.36,9.1-7.85,16.36-17.03,16.36
		c9.42,0,17.05,7.63,17.05,17.05C1134.35-8.54,1141.98-16.17,1151.4-16.17z"/>
	<path class="st1" d="M458.57,63.02c-4.48,0-8.13-3.55-8.31-7.98h-0.02c-0.18,4.44-3.83,7.98-8.31,7.98c4.59,0,8.32,3.72,8.32,8.32
		C450.25,66.75,453.97,63.02,458.57,63.02z"/>
	<g>
		<polygon class="st1" points="1811.49,5.36 1812.51,-11 1811.83,-27.36 1810.81,-11 		"/>
		<polygon class="st1" points="1795.3,-11.17 1811.66,-10.16 1828.02,-10.83 1811.66,-11.85 		"/>
	</g>
	<g>
		<polygon class="st1" points="60.66,-35.95 62,-57.61 61.11,-79.26 59.76,-57.61 		"/>
		<polygon class="st1" points="39.23,-57.83 60.88,-56.49 82.54,-57.38 60.88,-58.73 		"/>
	</g>
	<circle class="st1" cx="1866.45" cy="154.82" r="6.07"/>
	<circle class="st1" cx="181.42" cy="-160.88" r="5.12"/>
</g>
</svg>
