<?xml version="1.0" encoding="utf-8"?>
<!-- Generator: Adobe Illustrator 27.1.0, SVG Export Plug-In . SVG Version: 6.00 Build 0)  -->
<svg version="1.1" id="Capa_1" xmlns="http://www.w3.org/2000/svg" xmlns:xlink="http://www.w3.org/1999/xlink" x="0px" y="0px"
	 viewBox="0 0 50 50" style="enable-background:new 0 0 50 50;" xml:space="preserve">
<style type="text/css">
	.st0{fill:#FFFFFF;}
</style>
<g>
	<path class="st0" d="M24.74,48c-3.61,0-7.08-0.91-10.36-2.71C7.91,41.73,3.93,36.26,2.54,29.01c-0.11-0.6-0.19-1.2-0.26-1.8
		l-0.1-0.8l-0.01-2.8l0.08-0.35c0.26-3.63,1.32-7,3.16-10C9.05,7.3,14.37,3.63,21.2,2.36c0.59-0.11,1.19-0.18,1.78-0.25L23.88,2
		l2.79,0.02l0.07,0.94l0.15-0.89c3.32,0.23,6.38,1.11,9.07,2.62C43.5,8.92,47.6,15.42,48.14,24.02c0.24,3.77-0.48,7.37-2.14,10.71
		c-4.08,8.18-10.75,12.63-19.83,13.23C25.68,47.98,25.21,48,24.74,48z M23.94,3.8L23.2,3.89c-0.56,0.07-1.11,0.13-1.66,0.24
		C15.22,5.31,10.31,8.69,6.95,14.2c-1.69,2.76-2.66,5.85-2.9,9.2c-0.01,0.14-0.04,0.27-0.07,0.4l0,2.5L4.07,27
		c0.07,0.56,0.13,1.12,0.24,1.68c1.28,6.69,4.96,11.75,10.93,15.04c3.4,1.87,7.03,2.69,10.8,2.45c8.4-0.55,14.57-4.67,18.34-12.23
		c1.51-3.05,2.17-6.34,1.96-9.79c-0.5-7.95-4.29-13.96-11.27-17.86c-2.46-1.38-5.26-2.18-8.33-2.4c-0.13-0.01-0.27-0.04-0.4-0.07
		L23.94,3.8z M25.23,42.2c-0.54,0-1.09-0.02-1.64-0.07c-3.54-0.32-6.75-1.66-9.53-4c-1.13-0.95-1.6-2.27-1.4-3.91
		c0.53-4.33,3.95-7.39,8.33-7.43c0.96-0.01,1.91-0.01,2.87,0l1.32,0l1.31,0c0.96,0,1.92-0.01,2.89,0.01
		c4.12,0.05,7.49,2.85,8.21,6.81c0.22,1.21,0.31,2.6-0.65,3.78c-0.48,0.59-1.1,1.15-1.91,1.71C32.05,41.16,28.76,42.2,25.23,42.2z
		 M22.53,28.58c-0.51,0-1.02,0-1.52,0.01c-3.5,0.04-6.14,2.39-6.56,5.85c-0.13,1.03,0.12,1.77,0.77,2.32c2.5,2.1,5.37,3.3,8.53,3.59
		c3.7,0.33,7.17-0.59,10.25-2.73c0.67-0.46,1.17-0.91,1.54-1.37c0.47-0.58,0.45-1.35,0.27-2.32c-0.56-3.1-3.21-5.29-6.46-5.33
		c-0.95-0.01-1.91-0.01-2.86-0.01l-1.31,0l-1.33,0C23.41,28.58,22.97,28.58,22.53,28.58z M25.16,25.03c-2.17,0-4.22-0.85-5.77-2.4
		c-1.57-1.56-2.43-3.63-2.42-5.82c0.01-4.51,3.69-8.19,8.21-8.19c0,0,0,0,0.01,0c4.5,0,8.19,3.67,8.21,8.18l0,0
		c0.02,4.51-3.65,8.2-8.18,8.23C25.19,25.03,25.17,25.03,25.16,25.03z M25.18,10.42C25.17,10.42,25.17,10.42,25.18,10.42
		c-3.53,0-6.4,2.87-6.41,6.39c0,1.7,0.67,3.32,1.89,4.54c1.22,1.22,2.81,1.84,4.54,1.88c3.54-0.02,6.41-2.9,6.39-6.42l0,0
		C31.57,13.28,28.69,10.42,25.18,10.42z"/>
</g>
</svg>
